HIERARCHY
ROOT Hips
{
	OFFSET 0.000000  0.463670  0.080341
	CHANNELS 6 Xposition Yposition Zposition Zrotation Yrotation Xrotation 
	JOINT LHipJoint
	{
		OFFSET 0 0 0
		CHANNELS 3 Zrotation Yrotation Xrotation
		JOINT LeftUpLeg
		{
			OFFSET 0.949434 -0.248378 0.086503
			CHANNELS 3 Zrotation Yrotation Xrotation
			JOINT LeftLeg
			{
				OFFSET -0.076513 -3.879421 -0.177038
				CHANNELS 3 Zrotation Yrotation Xrotation
				JOINT LeftFoot
				{
					OFFSET -0.188964 -3.680973 -0.122632
					CHANNELS 3 Zrotation Yrotation Xrotation
					JOINT LeftToeBase
					{
						OFFSET 0.055451 -0.524480 1.120382
						CHANNELS 3 Zrotation Yrotation Xrotation
						End Site
						{
							OFFSET 0.007944 -0.006006 0.139660
						}
					}
				}
			}
		}
	}
	JOINT RHipJoint
	{
		OFFSET 0 0 0
		CHANNELS 3 Zrotation Yrotation Xrotation
		JOINT RightUpLeg
		{
			OFFSET -0.949434 -0.248378 0.086503
			CHANNELS 3 Zrotation Yrotation Xrotation
			JOINT RightLeg
			{
				OFFSET 0.076513 -3.879421 -0.177038
				CHANNELS 3 Zrotation Yrotation Xrotation
				JOINT RightFoot
				{
					OFFSET 0.188964 -3.680973 -0.122632
					CHANNELS 3 Zrotation Yrotation Xrotation
					JOINT RightToeBase
					{
						OFFSET -0.055451 -0.524480 1.120382
						CHANNELS 3 Zrotation Yrotation Xrotation
						End Site
						{
							OFFSET -0.007944 -0.006006 0.139660
						}
					}
				}
			}
		}
	}
	JOINT LowerBack
	{
		OFFSET 0 0 0
		CHANNELS 3 Zrotation Yrotation Xrotation
		JOINT Spine
		{
			OFFSET 0.000000 0.677144 0.028277
			CHANNELS 3 Zrotation Yrotation Xrotation
			JOINT Spine1
			{
				OFFSET 0.000000 2.156116 -0.508617
				CHANNELS 3 Zrotation Yrotation Xrotation
				JOINT Neck
				{
					OFFSET 0 0 0
					CHANNELS 3 Zrotation Yrotation Xrotation
					JOINT Neck1
					{
						OFFSET 0.000000 1.781871 0.216275
						CHANNELS 3 Zrotation Yrotation Xrotation
						JOINT Head
						{
							OFFSET 0.000000 1.015906 -0.026879
							CHANNELS 3 Zrotation Yrotation Xrotation
							End Site
							{
								OFFSET 0.000000 0.339197 0.983632
							}
						}
					}
				}
				JOINT LeftShoulder
				{
					OFFSET 0 0 0
					CHANNELS 3 Zrotation Yrotation Xrotation
					JOINT LeftArm
					{
						OFFSET 1.565866 1.184736 0.289545
						CHANNELS 3 Zrotation Yrotation Xrotation
						JOINT LeftForeArm
						{
							OFFSET 1.930940 -0.176441 -0.109244
							CHANNELS 3 Zrotation Yrotation Xrotation
							JOINT LeftHand
							{
								OFFSET 2.263412 -0.058986 0.122483
								CHANNELS 3 Zrotation Yrotation Xrotation
								JOINT LeftFingerBase
								{
									OFFSET 0 0 0
									CHANNELS 3 Zrotation Yrotation Xrotation
									JOINT LeftHandIndex1
									{
										OFFSET 0.944218 0.017559 0.358417
										CHANNELS 3 Zrotation Yrotation Xrotation
										End Site
										{
											OFFSET 0.237801 -0.022714 0.035813
										}
									}
								}
								JOINT LThumb
								{
									OFFSET 0 0 0
									CHANNELS 3 Zrotation Yrotation Xrotation
									End Site
									{
										OFFSET 0.234930 -0.092931 0.244282
									}
								}
							}
						}
					}
				}
				JOINT RightShoulder
				{
					OFFSET 0 0 0
					CHANNELS 3 Zrotation Yrotation Xrotation
					JOINT RightArm
					{
						OFFSET -1.565866 1.184736 0.289545
						CHANNELS 3 Zrotation Yrotation Xrotation
						JOINT RightForeArm
						{
							OFFSET -1.930940 -0.176441 -0.109244
							CHANNELS 3 Zrotation Yrotation Xrotation
							JOINT RightHand
							{
								OFFSET -2.263412 -0.058986 0.122483
								CHANNELS 3 Zrotation Yrotation Xrotation
								JOINT RightFingerBase
								{
									OFFSET 0 0 0
									CHANNELS 3 Zrotation Yrotation Xrotation
									JOINT RightHandIndex1
									{
										OFFSET -0.944218 0.017559 0.358417
										CHANNELS 3 Zrotation Yrotation Xrotation
										End Site
										{
											OFFSET -0.237801 -0.022714 0.035813
										}
									}
								}
								JOINT RThumb
								{
									OFFSET 0 0 0
									CHANNELS 3 Zrotation Yrotation Xrotation
									End Site
									{
										OFFSET -0.234930 -0.092931 0.244282
									}
								}
							}
						}
					}
				}
			}
		}
	}
}
MOTION
Frames: 11
Frame Time: .0083333
-0.153564 9.155990 5.428515 -5.768700 -0.747400 4.506300 0.000000 0.000000 0.000000 13.193200 -16.375900 -38.930698 5.915500 14.346000 44.641800 0.052600 -6.068100 9.963000 0.811500 -5.748500 -16.056400 0.000000 0.000000 0.000000 12.445499 1.581900 31.065201 -0.690400 -5.312100 14.800800 -3.177700 -11.153000 32.203899 -1.635600 -8.061900 22.902201 7.443100 1.426500 11.582300 0.118800 2.896200 0.159700 -4.541500 1.205800 -5.979000 -0.947000 -1.050900 9.449600 1.298100 -1.328400 -23.692900 0.522600 -0.645000 -10.733100 -0.000000 -0.000000 0.000000 -75.879799 36.018600 36.362499 119.912003 -56.333302 -85.585701 -0.000000 0.000000 -31.190500 43.954601 11.926200 11.268300 -7.125000 0.000000 -0.000000 15.843500 45.711399 0.285400 -0.000000 -0.000000 0.000000 68.849899 -0.588300 47.037800 -121.479202 55.902699 -86.886803 0.000000 0.000000 2.115300 -47.795898 27.088400 -26.662399 7.125000 -0.000000 -0.000000 -10.049000 6.797300 -11.334100
-0.161188 9.158268 5.697970 -6.236800 -1.541000 4.534300 0.000000 0.000000 0.000000 13.707200 -15.945900 -37.655399 4.732000 13.075500 39.651798 0.121200 -4.799500 10.049000 0.598600 -4.952900 -13.774200 0.000000 0.000000 0.000000 13.754002 3.404300 30.774799 -1.139200 -6.778200 19.059999 -2.837700 -10.873300 30.375299 -1.517000 -7.777700 22.040899 7.392800 1.737400 11.930000 0.250800 3.341800 0.126200 -4.459500 1.417900 -6.162900 -0.988300 -1.049500 9.183300 1.151500 -1.320000 -23.911400 0.484000 -0.640800 -10.758000 0.000000 -0.000000 0.000000 -76.236099 35.476299 36.099998 120.421097 -56.196701 -86.009003 -0.000000 0.000000 -31.459200 45.813702 12.857400 12.895000 -7.125000 0.000000 -0.000000 17.913601 47.283199 1.041300 0.000000 -0.000000 0.000000 68.802597 -1.142600 47.543999 -120.931297 56.056599 -86.432701 0.000000 0.000000 2.489500 -47.653999 26.148300 -25.805599 7.125000 -0.000000 -0.000000 -10.229300 5.596600 -11.352900
-0.169604 9.158614 5.967327 -6.927700 -3.056000 4.714700 0.000000 0.000000 0.000000 14.439000 -14.932100 -36.394299 3.765000 11.840900 35.171501 0.146700 -3.611000 9.487700 0.578400 -4.870200 -13.538700 0.000000 0.000000 0.000000 14.353699 4.680100 30.034599 -1.682900 -8.171800 23.237200 -2.764600 -9.837700 29.969700 -1.488200 -7.707000 21.827700 7.373400 2.256300 12.057700 0.405500 4.045400 0.172000 -4.398200 1.768200 -6.107900 -1.030000 -1.039500 9.268600 1.117400 -1.298700 -24.721600 0.482300 -0.630300 -11.021400 0.000000 0.000000 0.000000 -76.653397 34.528702 35.691502 120.592102 -56.150101 -86.151100 -0.000000 0.000000 -31.748199 46.405102 12.599800 12.904300 -7.125000 0.000000 -0.000000 18.458200 47.061901 0.971100 0.000000 0.000000 0.000000 68.793999 -1.485900 48.087299 -119.884399 56.340698 -85.562698 0.000000 0.000000 2.314400 -48.380199 26.230801 -26.449200 7.125000 -0.000000 -0.000000 -10.607000 6.036000 -11.859100
-0.159158 9.126831 6.253218 -6.382200 0.549700 4.021300 0.000000 0.000000 0.000000 13.208300 -17.632000 -34.418400 3.023300 10.732700 31.383499 0.153000 -3.396700 9.443900 0.817900 -5.770800 -16.121000 0.000000 0.000000 0.000000 14.509800 1.660200 28.360701 -2.304800 -9.474000 27.289700 -2.600200 -9.632200 29.036501 -1.213100 -6.986800 19.676201 7.828300 0.956400 11.408100 0.239500 2.285800 0.746400 -4.517300 0.942200 -5.325900 -1.127100 -1.009100 8.990601 1.264700 -1.243400 -25.171200 0.544300 -0.599800 -11.112500 0.000000 -0.000000 0.000000 -77.000397 33.282700 35.321499 120.477600 -56.181301 -86.056000 -0.000000 0.000000 -31.835400 46.187901 12.795600 12.999100 -7.125000 0.000000 -0.000000 18.283800 47.277401 1.061500 0.000000 -0.000000 0.000000 68.804497 -1.507700 48.495300 -118.208397 56.768700 -84.164200 0.000000 0.000000 2.029700 -49.854801 27.245100 -28.492399 7.125000 -0.000000 -0.000000 -11.125500 7.991700 -12.791600
-0.167277 9.107525 6.519010 -6.502400 0.921300 3.980500 0.000000 0.000000 0.000000 12.920100 -17.385900 -33.313801 2.476400 9.794800 28.314899 0.149600 -2.792000 8.888800 1.098200 -6.659100 -18.709400 0.000000 0.000000 0.000000 14.660500 1.249900 26.943399 -3.044500 -10.766800 31.497200 -2.601800 -9.758400 29.044500 -0.949000 -6.204100 17.377800 7.669500 0.821600 11.175600 0.314800 2.058600 0.981700 -4.302200 0.855900 -4.984300 -1.374700 -0.929200 9.129800 1.519700 -1.111600 -25.820801 0.668400 -0.530100 -11.331600 -0.000000 0.000000 0.000000 -77.399300 32.011600 34.996399 120.369400 -56.210701 -85.966103 -0.000000 0.000000 -31.762899 45.651001 13.537100 13.466200 -7.125000 0.000000 -0.000000 17.904499 48.142502 1.430900 -0.000000 0.000000 0.000000 68.772598 -1.804300 48.694500 -116.761597 57.112900 -82.951599 0.000000 0.000000 2.026900 -50.447899 27.227900 -28.986500 7.125000 -0.000000 -0.000000 -11.451000 8.275000 -13.228400
-0.182178 9.089703 6.783069 -6.594400 1.231400 4.030300 0.000000 0.000000 0.000000 12.515000 -16.672300 -32.457199 2.080400 9.031600 25.894300 0.132400 -2.528700 8.291100 1.273800 -7.153100 -20.169701 0.000000 0.000000 0.000000 14.874500 1.057700 25.248699 -3.898500 -12.024100 35.817402 -2.538600 -10.496700 28.683399 -0.867100 -5.937300 16.602699 7.258500 0.753400 11.006800 0.397300 1.902800 1.077300 -3.954600 0.797500 -4.824800 -1.217500 -0.908300 9.891700 1.375300 -1.095600 -26.998899 0.607200 -0.527500 -11.817600 -0.000000 -0.000000 0.000000 -77.514801 30.891001 34.999500 120.513100 -56.171700 -86.085503 -0.000000 0.000000 -31.568501 44.503300 13.041300 12.504300 -7.125000 0.000000 -0.000000 16.611401 47.263100 0.952900 -0.000000 -0.000000 0.000000 68.920700 -2.454400 48.754700 -115.307297 57.436001 -81.728104 0.000000 0.000000 1.736000 -49.230000 25.242800 -26.315901 7.125000 -0.000000 -0.000000 -11.347000 5.229000 -12.573200
-0.189010 9.072227 7.049505 -6.383800 1.268000 3.941300 0.000000 0.000000 0.000000 11.588700 -15.741500 -31.415501 1.801200 8.439100 24.055901 0.153300 -1.391500 8.042500 1.212000 -6.983700 -19.667101 0.000000 0.000000 0.000000 14.443501 0.887700 23.354000 -4.943400 -13.319800 40.577801 -2.579200 -10.969400 28.927299 -0.901900 -6.052200 16.935900 6.769200 0.733300 11.148700 0.309400 1.820000 1.154500 -3.763100 0.766800 -4.844200 -1.154100 -0.883000 10.423400 1.421100 -1.061700 -27.851500 0.619900 -0.514100 -12.169900 0.000000 0.000000 0.000000 -77.485100 29.646200 35.143799 120.563103 -56.158001 -86.126999 -0.000000 0.000000 -31.389500 42.538799 10.448500 9.447700 -7.125000 0.000000 -0.000000 14.220800 43.565201 -0.514600 0.000000 0.000000 0.000000 69.157204 -3.137700 48.805000 -113.112396 57.882099 -79.873596 0.000000 0.000000 0.835700 -47.722099 24.242500 -24.303600 7.125000 -0.000000 -0.000000 -10.775800 3.290700 -11.578500
-0.189455 9.047228 7.315347 -6.135100 0.861000 3.723600 0.000000 0.000000 0.000000 10.467800 -14.388200 -30.190800 1.589800 7.953500 22.573000 0.165200 -0.448800 7.852300 1.242100 -7.066800 -19.913401 0.000000 0.000000 0.000000 13.679798 0.912500 21.560101 -6.149000 -14.571200 45.576801 -2.691800 -11.647300 29.586901 -0.903200 -6.056700 16.948999 6.369100 0.840100 11.529000 0.147800 1.930300 1.191200 -3.735200 0.822300 -5.012100 -1.225500 -0.826800 10.446400 1.670900 -0.972600 -27.895500 0.710400 -0.470300 -12.187700 0.000000 -0.000000 0.000000 -77.303001 28.309500 35.425800 120.488899 -56.178200 -86.065399 -0.000000 0.000000 -31.452999 41.562599 9.655100 8.458500 -7.125000 0.000000 -0.000000 13.189500 42.406502 -0.860300 0.000000 -0.000000 0.000000 69.369904 -3.878500 48.616600 -110.405899 58.366600 -77.575104 0.000000 0.000000 0.585100 -47.111198 24.420401 -23.992800 7.125000 -0.000000 -0.000000 -10.386000 3.240800 -11.136900
-0.193020 9.013416 7.582029 -5.813100 0.454300 3.403200 0.000000 0.000000 0.000000 9.246900 -12.872900 -28.873800 1.436000 7.576600 21.435200 0.193800 0.106000 8.276700 1.347300 -7.348500 -20.752100 0.000000 0.000000 0.000000 12.844200 0.900100 19.748400 -7.485200 -15.727300 50.686600 -2.704200 -12.535300 29.701799 -0.862500 -5.921900 16.558001 5.778700 0.950300 11.980500 -0.013200 2.025100 1.113300 -3.603000 0.866400 -5.349800 -1.105300 -0.752200 10.781300 1.770500 -0.877800 -27.825800 0.723400 -0.428100 -12.222800 0.000000 0.000000 0.000000 -77.091797 27.202600 35.785198 120.445297 -56.190102 -86.029198 -0.000000 0.000000 -31.558399 41.882599 10.356800 9.157600 -7.125000 0.000000 -0.000000 13.587500 43.350399 -0.564200 0.000000 0.000000 0.000000 69.611504 -4.795500 48.310101 -107.318100 58.835899 -74.939301 0.000000 0.000000 0.763700 -47.272202 25.042000 -24.620100 7.125000 -0.000000 -0.000000 -10.313400 4.075200 -11.197900
-0.195743 8.967179 7.845000 -5.238300 0.500800 3.008100 0.000000 0.000000 0.000000 7.648800 -11.381900 -27.872299 1.389300 7.457400 21.077700 0.237200 -0.532800 9.408700 1.028200 -6.450000 -18.095800 0.000000 0.000000 0.000000 11.684700 0.405400 17.703600 -8.929600 -16.762199 55.846298 -2.636900 -13.112100 29.371401 -1.066400 -6.565000 18.432899 5.057100 0.887800 12.474200 -0.225900 1.862600 1.103300 -3.410600 0.790500 -5.667600 -1.013700 -0.669600 11.252300 1.808800 -0.769600 -28.091801 0.725200 -0.379300 -12.386900 -0.000000 -0.000000 0.000000 -76.816101 25.902800 36.240799 120.582397 -56.152699 -86.143097 -0.000000 0.000000 -31.790400 42.191700 11.125200 9.921200 -7.125000 0.000000 -0.000000 13.993400 44.382099 -0.217800 -0.000000 -0.000000 0.000000 69.829597 -5.660500 48.035900 -104.053802 59.240398 -72.139900 0.000000 0.000000 0.433900 -47.389301 25.376900 -24.980400 7.125000 -0.000000 -0.000000 -10.290000 4.537200 -11.248600
-0.198564 8.917426 8.113366 -4.479900 0.686100 2.663900 0.000000 0.000000 0.000000 5.840200 -9.919800 -27.342199 1.491000 7.713900 21.848301 0.134800 -3.974800 9.548500 0.676900 -5.261000 -14.654400 0.000000 0.000000 0.000000 10.099701 -0.327000 15.590100 -10.424500 -17.641800 60.898102 -2.514100 -14.118300 28.789400 -1.336200 -7.319400 20.665199 4.075100 0.797500 12.709500 -0.423600 1.604000 1.169200 -3.027000 0.683200 -5.773600 -0.840800 -0.569800 11.427200 1.690500 -0.649600 -28.033699 0.660300 -0.322900 -12.400000 -0.000000 0.000000 0.000000 -76.514000 24.453600 36.788399 121.104301 -56.008400 -86.576103 -0.000000 0.000000 -32.460201 41.736301 11.207500 9.836800 -7.125000 0.000000 -0.000000 13.568500 44.415901 -0.199400 -0.000000 0.000000 0.000000 69.967102 -6.422200 47.746799 -100.755203 59.558399 -69.300499 0.000000 -0.000000 -0.051800 -47.460899 25.575701 -25.195900 7.125000 -0.000000 -0.000000 -10.276800 4.812100 -11.279100
